<svg width="56" height="50" viewBox="0 0 56 50" fill="none" xmlns="http://www.w3.org/2000/svg">
<path fill-rule="evenodd" clip-rule="evenodd" d="M3.19109 42.5L52.8183 42.5C53.2454 42.5 53.6253 42.7713 53.764 43.1752L55.4811 48.1752C55.7041 48.8244 55.2217 49.5 54.5354 49.5L0.493164 49.5L3.19109 42.5Z" fill="#FF0034"/>
<rect x="1.70264" y="46.6074" width="46" height="7" transform="rotate(-71 1.70264 46.6074)" fill="#FF0034"/>
<path fill-rule="evenodd" clip-rule="evenodd" d="M51.2835 39.0186C51.9697 39.0178 52.4512 38.3419 52.2278 37.6931L40.3211 3.1135L33.7025 5.39248L45.051 38.3509C45.1901 38.7549 45.5705 39.0259 45.9977 39.0254L51.2835 39.0186Z" fill="#FF0034"/>
<path fill-rule="evenodd" clip-rule="evenodd" d="M31.981 25.9033L24.1003 3.0163L16.6991 3.02245L16.7342 3.12437L24.5809 25.9127L31.981 25.9033Z" fill="#FF0034"/>
<path fill-rule="evenodd" clip-rule="evenodd" d="M24.6992 25.9033L32.5799 3.0163L39.9811 3.02245L39.946 3.12437L32.0993 25.9127L24.6992 25.9033Z" fill="#FF0034"/>
</svg>
