<?xml version="1.0" encoding="UTF-8"?>
<svg width="14px" height="14px" viewBox="0 0 14 14" version="1.1" xmlns="http://www.w3.org/2000/svg" xmlns:xlink="http://www.w3.org/1999/xlink">
    <!-- Generator: Sketch 53 (72520) - https://sketchapp.com -->
    <title>Combined Shape</title>
    <desc>Created with Sketch.</desc>
    <g id="Page-1" stroke="none" stroke-width="1" fill="none" fill-rule="evenodd">
        <g id="Home-page" transform="translate(-934.000000, -61.000000)" fill="#232323" fill-rule="nonzero">
            <g id="Group-3" transform="translate(95.000000, 52.000000)">
                <g id="Group" transform="translate(839.000000, 5.000000)">
                    <path d="M11.2223296,14.2323801 L13.7949747,16.8050253 C14.0683418,17.0783923 14.0683418,17.5216077 13.7949747,17.7949747 C13.5216077,18.0683418 13.0783923,18.0683418 12.8050253,17.7949747 L10.2323801,15.2223296 C9.15461048,16.084469 7.7875096,16.6 6.3,16.6 C2.82060608,16.6 0,13.7793939 0,10.3 C0,6.82060608 2.82060608,4 6.3,4 C9.77939392,4 12.6,6.82060608 12.6,10.3 C12.6,11.7875096 12.084469,13.1546105 11.2223296,14.2323801 Z M9.82897016,13.6994738 C10.6779235,12.8183864 11.2,11.620162 11.2,10.3 C11.2,7.59380473 9.00619527,5.4 6.3,5.4 C3.59380473,5.4 1.4,7.59380473 1.4,10.3 C1.4,13.0061953 3.59380473,15.2 6.3,15.2 C7.62016196,15.2 8.81838642,14.6779235 9.69947377,13.8289702 C9.71789583,13.8050111 9.73807966,13.7819709 9.76002525,13.7600253 C9.78197085,13.7380797 9.80501107,13.7178958 9.82897016,13.6994738 Z" id="Combined-Shape"></path>
                </g>
            </g>
        </g>
    </g>
</svg>