<svg width="14" height="14" viewBox="0 0 14 14" fill="none" xmlns="http://www.w3.org/2000/svg">
<path fill-rule="evenodd" clip-rule="evenodd" d="M6.3 12.6C2.82061 12.6 0 9.77939 0 6.3C0 2.82061 2.82061 0 6.3 0C9.77939 0 12.6 2.82061 12.6 6.3C12.6 7.78751 12.0845 9.15461 11.2223 10.2324L13.795 12.805C14.0683 13.0784 14.0683 13.5216 13.795 13.795C13.5216 14.0683 13.0784 14.0683 12.805 13.795L10.2324 11.2223C9.15461 12.0845 7.78751 12.6 6.3 12.6ZM9.69948 9.82897C8.81839 10.6779 7.62016 11.2 6.3 11.2C3.5938 11.2 1.4 9.0062 1.4 6.3C1.4 3.5938 3.5938 1.4 6.3 1.4C9.0062 1.4 11.2 3.5938 11.2 6.3C11.2 7.62016 10.6779 8.81839 9.82897 9.69948C9.80501 9.7179 9.78197 9.73808 9.76003 9.76003C9.73808 9.78197 9.7179 9.80501 9.69948 9.82897Z" fill="#232323"/>
</svg>
